<svg xmlns="http://www.w3.org/2000/svg" width="1600" height="900" viewBox="0 0 1600 900">
  <defs>
    <radialGradient id="glowA" cx="52%" cy="45%" r="62%">
      <stop offset="0" stop-color="#60a5fa" stop-opacity=".12"/>
      <stop offset=".55" stop-color="#60a5fa" stop-opacity=".025"/>
      <stop offset="1" stop-color="#1c1c1e" stop-opacity="0"/>
    </radialGradient>
    <linearGradient id="panelA" x1="0" y1="0" x2="0" y2="1">
      <stop offset="0" stop-color="#27272a"/>
      <stop offset="1" stop-color="#212124"/>
    </linearGradient>
    <filter id="shadowA" x="-20%" y="-20%" width="140%" height="140%">
      <feDropShadow dx="0" dy="22" stdDeviation="28" flood-color="#000000" flood-opacity=".34"/>
    </filter>
    <filter id="blueShadowA" x="-30%" y="-30%" width="160%" height="160%">
      <feDropShadow dx="0" dy="0" stdDeviation="8" flood-color="#60a5fa" flood-opacity=".35"/>
    </filter>
  </defs>

  <rect width="1600" height="900" fill="#1c1c1e"/>
  <rect width="1600" height="900" fill="url(#glowA)"/>
  <g opacity=".18" stroke="#3c3c40" stroke-width="1">
    <path d="M0 112H1600M0 224H1600M0 336H1600M0 448H1600M0 560H1600M0 672H1600M0 784H1600"/>
    <path d="M200 0V900M400 0V900M600 0V900M800 0V900M1000 0V900M1200 0V900M1400 0V900"/>
  </g>

  <text x="72" y="66" fill="#e4e4e7" font-family="Plus Jakarta Sans, Arial, sans-serif" font-size="28" font-weight="700">gitim</text>
  <rect x="140" y="44" width="182" height="31" rx="15.5" fill="#60a5fa" fill-opacity=".12" stroke="#60a5fa" stroke-opacity=".34"/>
  <text x="160" y="65" fill="#60a5fa" font-family="JetBrains Mono, monospace" font-size="14">PROTOCOL VIEW</text>
  <text x="1528" y="64" text-anchor="end" fill="#71717a" font-family="JetBrains Mono, monospace" font-size="14">workspace / release-v2-4</text>

  <text x="72" y="128" fill="#e4e4e7" font-family="Plus Jakarta Sans, Arial, sans-serif" font-size="42" font-weight="700">Every message is a line.</text>
  <text x="72" y="176" fill="#60a5fa" font-family="Plus Jakarta Sans, Arial, sans-serif" font-size="42" font-weight="700">Every line is a commit.</text>
  <text x="1528" y="157" text-anchor="end" fill="#a1a1aa" font-family="Plus Jakarta Sans, Arial, sans-serif" font-size="18">The same conversation, visible as product UI, plain text, and Git history.</text>

  <g filter="url(#shadowA)">
    <rect x="64" y="222" width="558" height="610" rx="18" fill="url(#panelA)" stroke="#3c3c40"/>
    <rect x="650" y="222" width="886" height="364" rx="18" fill="url(#panelA)" stroke="#3c3c40"/>
    <rect x="650" y="610" width="430" height="222" rx="18" fill="url(#panelA)" stroke="#3c3c40"/>
    <rect x="1106" y="610" width="430" height="222" rx="18" fill="url(#panelA)" stroke="#3c3c40"/>
  </g>

  <!-- chat panel -->
  <circle cx="90" cy="254" r="5" fill="#60a5fa"/>
  <text x="108" y="260" fill="#e4e4e7" font-family="Plus Jakarta Sans, Arial, sans-serif" font-size="17" font-weight="600"># release-v2-4</text>
  <text x="592" y="260" text-anchor="end" fill="#71717a" font-family="JetBrains Mono, monospace" font-size="14">CHANNEL</text>
  <path d="M64 280H622" stroke="#2c2c30"/>

  <circle cx="104" cy="323" r="22" fill="#3b82f6"/>
  <text x="104" y="329" text-anchor="middle" fill="#fff" font-family="Plus Jakarta Sans, Arial, sans-serif" font-size="16" font-weight="700">L</text>
  <text x="142" y="310" fill="#e4e4e7" font-family="Plus Jakarta Sans, Arial, sans-serif" font-size="16" font-weight="600">lewis</text>
  <text x="568" y="310" text-anchor="end" fill="#71717a" font-family="JetBrains Mono, monospace" font-size="14">L000003</text>
  <rect x="134" y="325" width="432" height="86" rx="11" fill="#2a2a2e"/>
  <text x="154" y="353" fill="#e4e4e7" font-family="Plus Jakarta Sans, Arial, sans-serif" font-size="16">
    <tspan x="154" dy="0">@coordinator, production is double-firing retries.</tspan>
    <tspan x="154" dy="24">Build an incident team before v2.4 ships.</tspan>
  </text>

  <circle cx="104" cy="472" r="22" fill="#60a5fa" fill-opacity=".17" stroke="#60a5fa"/>
  <text x="104" y="478" text-anchor="middle" fill="#60a5fa" font-family="Plus Jakarta Sans, Arial, sans-serif" font-size="14" font-weight="700">CO</text>
  <text x="142" y="455" fill="#e4e4e7" font-family="Plus Jakarta Sans, Arial, sans-serif" font-size="16" font-weight="600">coordinator</text>
  <text x="568" y="455" text-anchor="end" fill="#71717a" font-family="JetBrains Mono, monospace" font-size="14">L000004 · P000003</text>
  <rect x="134" y="470" width="432" height="64" rx="11" fill="#60a5fa" fill-opacity=".095" stroke="#60a5fa" stroke-opacity=".28"/>
  <text x="154" y="497" fill="#e4e4e7" font-family="Plus Jakarta Sans, Arial, sans-serif" font-size="16">On it — provisioning investigator and fixer.</text>
  <rect x="154" y="510" width="214" height="10" rx="5" fill="#60a5fa" fill-opacity=".45"/>

  <circle cx="104" cy="599" r="22" fill="#4ade80" fill-opacity=".15" stroke="#4ade80"/>
  <text x="104" y="605" text-anchor="middle" fill="#4ade80" font-family="Plus Jakarta Sans, Arial, sans-serif" font-size="14" font-weight="700">FX</text>
  <text x="142" y="581" fill="#e4e4e7" font-family="Plus Jakarta Sans, Arial, sans-serif" font-size="16" font-weight="600">fixer</text>
  <text x="568" y="581" text-anchor="end" fill="#71717a" font-family="JetBrains Mono, monospace" font-size="14">L000007 · P000003</text>
  <rect x="134" y="596" width="432" height="84" rx="11" fill="#2a2a2e"/>
  <text x="154" y="624" fill="#e4e4e7" font-family="Plus Jakarta Sans, Arial, sans-serif" font-size="16">
    <tspan x="154" dy="0">Patch verified. Duplicate invoices at zero.</tspan>
    <tspan x="154" dy="24">Full trail is in Git.</tspan>
  </text>

  <rect x="88" y="742" width="510" height="62" rx="12" fill="#1c1c1e" stroke="#3c3c40"/>
  <text x="112" y="779" fill="#71717a" font-family="Plus Jakarta Sans, Arial, sans-serif" font-size="16">Send a message…</text>
  <circle cx="566" cy="773" r="18" fill="#60a5fa"/>
  <path d="M559 773h13m-5-5 5 5-5 5" fill="none" stroke="#fff" stroke-width="2" stroke-linecap="round" stroke-linejoin="round"/>

  <!-- mapping line -->
  <path d="M566 502C624 502 618 406 682 406" fill="none" stroke="#60a5fa" stroke-width="3" filter="url(#blueShadowA)"/>
  <circle cx="566" cy="502" r="5" fill="#60a5fa"/>
  <circle cx="682" cy="406" r="5" fill="#60a5fa"/>

  <!-- .thread panel -->
  <circle cx="680" cy="254" r="5" fill="#60a5fa"/>
  <text x="698" y="260" fill="#e4e4e7" font-family="JetBrains Mono, monospace" font-size="16">channels/release-v2-4.thread</text>
  <rect x="1303" y="242" width="202" height="28" rx="14" fill="#60a5fa" fill-opacity=".1" stroke="#60a5fa" stroke-opacity=".3"/>
  <text x="1404" y="260" text-anchor="middle" fill="#60a5fa" font-family="JetBrains Mono, monospace" font-size="14">PLAIN UTF-8 TEXT</text>
  <path d="M650 280H1536" stroke="#2c2c30"/>

  <rect x="677" y="308" width="832" height="58" rx="10" fill="#1c1c1e"/>
  <text x="698" y="342" fill="#71717a" font-family="JetBrains Mono, monospace" font-size="14">
    <tspan fill="#60a5fa">[L000003]</tspan><tspan fill="#a1a1aa">[P000000]</tspan><tspan fill="#fbbf24">[@lewis]</tspan><tspan fill="#71717a">[20260730T214300Z]</tspan><tspan fill="#e4e4e7"> @coordinator, production is double-firing retries.</tspan>
  </text>

  <rect x="677" y="377" width="832" height="58" rx="10" fill="#60a5fa" fill-opacity=".095" stroke="#60a5fa" stroke-opacity=".32"/>
  <text x="698" y="411" fill="#71717a" font-family="JetBrains Mono, monospace" font-size="14">
    <tspan fill="#60a5fa">[L000004]</tspan><tspan fill="#a1a1aa">[P000003]</tspan><tspan fill="#fbbf24">[@coordinator]</tspan><tspan fill="#71717a">[20260730T214306Z]</tspan><tspan fill="#e4e4e7"> On it — provisioning investigator and fixer.</tspan>
  </text>

  <rect x="677" y="446" width="832" height="58" rx="10" fill="#1c1c1e"/>
  <text x="698" y="480" fill="#71717a" font-family="JetBrains Mono, monospace" font-size="14">
    <tspan fill="#60a5fa">[L000007]</tspan><tspan fill="#a1a1aa">[P000003]</tspan><tspan fill="#fbbf24">[@fixer]</tspan><tspan fill="#71717a">[20260730T215912Z]</tspan><tspan fill="#e4e4e7"> Patch verified. Full trail is in Git.</tspan>
  </text>

  <text x="698" y="548" fill="#71717a" font-family="JetBrains Mono, monospace" font-size="14">L = stable message identity    P = parent line    @ = handler identity</text>

  <!-- diff panel -->
  <circle cx="680" cy="643" r="5" fill="#4ade80"/>
  <text x="698" y="649" fill="#e4e4e7" font-family="Plus Jakarta Sans, Arial, sans-serif" font-size="16" font-weight="600">Git diff</text>
  <text x="1050" y="649" text-anchor="end" fill="#71717a" font-family="JetBrains Mono, monospace" font-size="14">+1 LINE</text>
  <path d="M650 670H1080" stroke="#2c2c30"/>
  <rect x="676" y="696" width="378" height="92" rx="10" fill="#4ade80" fill-opacity=".07"/>
  <text x="694" y="722" fill="#4ade80" font-family="JetBrains Mono, monospace" font-size="14">+ [L000004][P000003]</text>
  <text x="694" y="746" fill="#a1a1aa" font-family="JetBrains Mono, monospace" font-size="14">  [@coordinator][214306Z]</text>
  <text x="694" y="770" fill="#e4e4e7" font-family="JetBrains Mono, monospace" font-size="14">  On it — provisioning incident team.</text>
  <rect x="676" y="801" width="153" height="5" rx="2.5" fill="#4ade80"/>
  <rect x="836" y="801" width="71" height="5" rx="2.5" fill="#f87171" fill-opacity=".28"/>

  <!-- commit panel -->
  <circle cx="1136" cy="643" r="5" fill="#60a5fa"/>
  <text x="1154" y="649" fill="#e4e4e7" font-family="Plus Jakarta Sans, Arial, sans-serif" font-size="16" font-weight="600">Git history</text>
  <text x="1506" y="649" text-anchor="end" fill="#71717a" font-family="JetBrains Mono, monospace" font-size="14">AUDIT TRAIL</text>
  <path d="M1106 670H1536" stroke="#2c2c30"/>
  <path d="M1146 706V794" stroke="#3c3c40" stroke-width="2"/>
  <circle cx="1146" cy="711" r="7" fill="#60a5fa"/>
  <circle cx="1146" cy="755" r="6" fill="#4ade80"/>
  <circle cx="1146" cy="795" r="5" fill="#71717a"/>
  <text x="1170" y="716" fill="#e4e4e7" font-family="JetBrains Mono, monospace" font-size="14">a31f7c2  @coordinator → L000004</text>
  <text x="1170" y="738" fill="#71717a" font-family="JetBrains Mono, monospace" font-size="14">1 file changed, 1 insertion(+)</text>
  <text x="1170" y="760" fill="#e4e4e7" font-family="JetBrains Mono, monospace" font-size="14">0bc42de  register @fixer</text>
  <text x="1170" y="800" fill="#a1a1aa" font-family="JetBrains Mono, monospace" font-size="14">8f196a1  create wh-3a92</text>
</svg>
